<svg version="1.1" xmlns="http://www.w3.org/2000/svg" xmlns:xlink="http://www.w3.org/1999/xlink" width="516" height="396"><defs/><g><text fill="#eeeeee" stroke="none" font-family="Arial" font-size="24px" font-style="normal" font-weight="normal" text-decoration="none" x="0" y="0">UNREGISTERED</text><text fill="#eeeeee" stroke="none" font-family="Arial" font-size="24px" font-style="normal" font-weight="normal" text-decoration="none" x="0" y="30">UNREGISTERED</text><text fill="#eeeeee" stroke="none" font-family="Arial" font-size="24px" font-style="normal" font-weight="normal" text-decoration="none" x="0" y="60">UNREGISTERED</text><text fill="#eeeeee" stroke="none" font-family="Arial" font-size="24px" font-style="normal" font-weight="normal" text-decoration="none" x="0" y="90">UNREGISTERED</text><text fill="#eeeeee" stroke="none" font-family="Arial" font-size="24px" font-style="normal" font-weight="normal" text-decoration="none" x="0" y="120">UNREGISTERED</text><text fill="#eeeeee" stroke="none" font-family="Arial" font-size="24px" font-style="normal" font-weight="normal" text-decoration="none" x="0" y="150">UNREGISTERED</text><text fill="#eeeeee" stroke="none" font-family="Arial" font-size="24px" font-style="normal" font-weight="normal" text-decoration="none" x="0" y="180">UNREGISTERED</text><text fill="#eeeeee" stroke="none" font-family="Arial" font-size="24px" font-style="normal" font-weight="normal" text-decoration="none" x="0" y="210">UNREGISTERED</text><text fill="#eeeeee" stroke="none" font-family="Arial" font-size="24px" font-style="normal" font-weight="normal" text-decoration="none" x="0" y="240">UNREGISTERED</text><text fill="#eeeeee" stroke="none" font-family="Arial" font-size="24px" font-style="normal" font-weight="normal" text-decoration="none" x="0" y="270">UNREGISTERED</text><text fill="#eeeeee" stroke="none" font-family="Arial" font-size="24px" font-style="normal" font-weight="normal" text-decoration="none" x="0" y="300">UNREGISTERED</text><text fill="#eeeeee" stroke="none" font-family="Arial" font-size="24px" font-style="normal" font-weight="normal" text-decoration="none" x="0" y="330">UNREGISTERED</text><text fill="#eeeeee" stroke="none" font-family="Arial" font-size="24px" font-style="normal" font-weight="normal" text-decoration="none" x="0" y="360">UNREGISTERED</text><text fill="#eeeeee" stroke="none" font-family="Arial" font-size="24px" font-style="normal" font-weight="normal" text-decoration="none" x="0" y="390">UNREGISTERED</text><text fill="#eeeeee" stroke="none" font-family="Arial" font-size="24px" font-style="normal" font-weight="normal" text-decoration="none" x="200" y="0">UNREGISTERED</text><text fill="#eeeeee" stroke="none" font-family="Arial" font-size="24px" font-style="normal" font-weight="normal" text-decoration="none" x="200" y="30">UNREGISTERED</text><text fill="#eeeeee" stroke="none" font-family="Arial" font-size="24px" font-style="normal" font-weight="normal" text-decoration="none" x="200" y="60">UNREGISTERED</text><text fill="#eeeeee" stroke="none" font-family="Arial" font-size="24px" font-style="normal" font-weight="normal" text-decoration="none" x="200" y="90">UNREGISTERED</text><text fill="#eeeeee" stroke="none" font-family="Arial" font-size="24px" font-style="normal" font-weight="normal" text-decoration="none" x="200" y="120">UNREGISTERED</text><text fill="#eeeeee" stroke="none" font-family="Arial" font-size="24px" font-style="normal" font-weight="normal" text-decoration="none" x="200" y="150">UNREGISTERED</text><text fill="#eeeeee" stroke="none" font-family="Arial" font-size="24px" font-style="normal" font-weight="normal" text-decoration="none" x="200" y="180">UNREGISTERED</text><text fill="#eeeeee" stroke="none" font-family="Arial" font-size="24px" font-style="normal" font-weight="normal" text-decoration="none" x="200" y="210">UNREGISTERED</text><text fill="#eeeeee" stroke="none" font-family="Arial" font-size="24px" font-style="normal" font-weight="normal" text-decoration="none" x="200" y="240">UNREGISTERED</text><text fill="#eeeeee" stroke="none" font-family="Arial" font-size="24px" font-style="normal" font-weight="normal" text-decoration="none" x="200" y="270">UNREGISTERED</text><text fill="#eeeeee" stroke="none" font-family="Arial" font-size="24px" font-style="normal" font-weight="normal" text-decoration="none" x="200" y="300">UNREGISTERED</text><text fill="#eeeeee" stroke="none" font-family="Arial" font-size="24px" font-style="normal" font-weight="normal" text-decoration="none" x="200" y="330">UNREGISTERED</text><text fill="#eeeeee" stroke="none" font-family="Arial" font-size="24px" font-style="normal" font-weight="normal" text-decoration="none" x="200" y="360">UNREGISTERED</text><text fill="#eeeeee" stroke="none" font-family="Arial" font-size="24px" font-style="normal" font-weight="normal" text-decoration="none" x="200" y="390">UNREGISTERED</text><text fill="#eeeeee" stroke="none" font-family="Arial" font-size="24px" font-style="normal" font-weight="normal" text-decoration="none" x="400" y="0">UNREGISTERED</text><text fill="#eeeeee" stroke="none" font-family="Arial" font-size="24px" font-style="normal" font-weight="normal" text-decoration="none" x="400" y="30">UNREGISTERED</text><text fill="#eeeeee" stroke="none" font-family="Arial" font-size="24px" font-style="normal" font-weight="normal" text-decoration="none" x="400" y="60">UNREGISTERED</text><text fill="#eeeeee" stroke="none" font-family="Arial" font-size="24px" font-style="normal" font-weight="normal" text-decoration="none" x="400" y="90">UNREGISTERED</text><text fill="#eeeeee" stroke="none" font-family="Arial" font-size="24px" font-style="normal" font-weight="normal" text-decoration="none" x="400" y="120">UNREGISTERED</text><text fill="#eeeeee" stroke="none" font-family="Arial" font-size="24px" font-style="normal" font-weight="normal" text-decoration="none" x="400" y="150">UNREGISTERED</text><text fill="#eeeeee" stroke="none" font-family="Arial" font-size="24px" font-style="normal" font-weight="normal" text-decoration="none" x="400" y="180">UNREGISTERED</text><text fill="#eeeeee" stroke="none" font-family="Arial" font-size="24px" font-style="normal" font-weight="normal" text-decoration="none" x="400" y="210">UNREGISTERED</text><text fill="#eeeeee" stroke="none" font-family="Arial" font-size="24px" font-style="normal" font-weight="normal" text-decoration="none" x="400" y="240">UNREGISTERED</text><text fill="#eeeeee" stroke="none" font-family="Arial" font-size="24px" font-style="normal" font-weight="normal" text-decoration="none" x="400" y="270">UNREGISTERED</text><text fill="#eeeeee" stroke="none" font-family="Arial" font-size="24px" font-style="normal" font-weight="normal" text-decoration="none" x="400" y="300">UNREGISTERED</text><text fill="#eeeeee" stroke="none" font-family="Arial" font-size="24px" font-style="normal" font-weight="normal" text-decoration="none" x="400" y="330">UNREGISTERED</text><text fill="#eeeeee" stroke="none" font-family="Arial" font-size="24px" font-style="normal" font-weight="normal" text-decoration="none" x="400" y="360">UNREGISTERED</text><text fill="#eeeeee" stroke="none" font-family="Arial" font-size="24px" font-style="normal" font-weight="normal" text-decoration="none" x="400" y="390">UNREGISTERED</text><g transform="translate(2,-6) scale(1,1)"><rect fill="#C0C0C0" stroke="none" x="15" y="23" width="496" height="376" opacity="0.2"/></g><g transform="translate(2,-6) scale(1,1)"><rect fill="#ffffff" stroke="none" x="8" y="16" width="496" height="376"/></g><g transform="translate(2,-6) scale(1,1)"><path fill="none" stroke="#000000" d="M 8 16 L 504 16 L 504 392 L 8 392 L 8 16 Z Z" stroke-miterlimit="10"/></g><g transform="translate(2,-6) scale(1,1)"><g><path fill="none" stroke="none"/><text fill="#000000" stroke="none" font-family="Arial" font-size="13px" font-style="normal" font-weight="bold" text-decoration="none" x="198.918701171875" y="35.5">Medicine Dispenser</text></g></g><g transform="translate(2,-6) scale(1,1)"><path fill="#FFFFB9" stroke="none" d="M 91.32072727272727 121.68 C 91.32072727272727 116.886167936 95.20656959767273 113 100 113 C 104.79343040232727 113 108.67927272727273 116.886167936 108.67927272727273 121.68 C 108.67927272727273 126.473832064 104.79343040232727 130.36 100 130.36 C 95.20656959767273 130.36 91.32072727272727 126.473832064 91.32072727272727 121.68 Z"/></g><g transform="translate(2,-6) scale(1,1)"><path fill="none" stroke="#800000" d="M 91.32072727272727 121.68 C 91.32072727272727 116.886167936 95.20656959767273 113 100 113 C 104.79343040232727 113 108.67927272727273 116.886167936 108.67927272727273 121.68 C 108.67927272727273 126.473832064 104.79343040232727 130.36 100 130.36 C 95.20656959767273 130.36 91.32072727272727 126.473832064 91.32072727272727 121.68 Z" stroke-miterlimit="10"/></g><g transform="translate(2,-6) scale(1,1)"><path fill="none" stroke="#800000" d="M 100 130.36 L 100 147.64" stroke-miterlimit="10"/></g><g transform="translate(2,-6) scale(1,1)"><path fill="none" stroke="#800000" d="M 90.81018181818182 136.84 L 109.18981818181818 136.84" stroke-miterlimit="10"/></g><g transform="translate(2,-6) scale(1,1)"><path fill="none" stroke="#800000" d="M 100 147.64 L 87.23636363636363 165" stroke-miterlimit="10"/></g><g transform="translate(2,-6) scale(1,1)"><path fill="none" stroke="#800000" d="M 100 147.64 L 112.76363636363637 165" stroke-miterlimit="10"/></g><g transform="translate(2,-6) scale(1,1)"><g><path fill="none" stroke="none"/><text fill="#000000" stroke="none" font-family="Arial" font-size="11px" font-style="normal" font-weight="bold" text-decoration="none" x="88.3876953125" y="183.5">User</text></g></g><g transform="translate(2,-6) scale(1,1)"><path fill="#C0C0C0" stroke="none" d="M 319 86.5 C 319 73.5213072 354.81721600000003 63 399 63 C 443.18278399999997 63 479 73.5213072 479 86.5 C 479 99.4786928 443.18278399999997 110 399 110 C 354.81721600000003 110 319 99.4786928 319 86.5 Z" opacity="0.2"/></g><g transform="translate(2,-6) scale(1,1)"><path fill="#FFFFB9" stroke="none" d="M 312 79.5 C 312 66.5213072 347.81721600000003 56 392 56 C 436.18278399999997 56 472 66.5213072 472 79.5 C 472 92.4786928 436.18278399999997 103 392 103 C 347.81721600000003 103 312 92.4786928 312 79.5 Z"/></g><g transform="translate(2,-6) scale(1,1)"><path fill="none" stroke="#800000" d="M 312 79.5 C 312 66.5213072 347.81721600000003 56 392 56 C 436.18278399999997 56 472 66.5213072 472 79.5 C 472 92.4786928 436.18278399999997 103 392 103 C 347.81721600000003 103 312 92.4786928 312 79.5 Z" stroke-miterlimit="10"/></g><g transform="translate(2,-6) scale(1,1)"><g><path fill="none" stroke="none"/><text fill="#000000" stroke="none" font-family="Arial" font-size="11px" font-style="normal" font-weight="bold" text-decoration="none" x="347.057373046875" y="85.5">Consult schedules</text></g></g><g transform="translate(2,-6) scale(1,1)"><path fill="#C0C0C0" stroke="none" d="M 311 159 C 311 145.7451648 350.17508 135 398.5 135 C 446.82492 135 486 145.7451648 486 159 C 486 172.2548352 446.82492 183 398.5 183 C 350.17508 183 311 172.2548352 311 159 Z" opacity="0.2"/></g><g transform="translate(2,-6) scale(1,1)"><path fill="#FFFFB9" stroke="none" d="M 304 152 C 304 138.7451648 343.17508 128 391.5 128 C 439.82492 128 479 138.7451648 479 152 C 479 165.2548352 439.82492 176 391.5 176 C 343.17508 176 304 165.2548352 304 152 Z"/></g><g transform="translate(2,-6) scale(1,1)"><path fill="none" stroke="#800000" d="M 304 152 C 304 138.7451648 343.17508 128 391.5 128 C 439.82492 128 479 138.7451648 479 152 C 479 165.2548352 439.82492 176 391.5 176 C 343.17508 176 304 165.2548352 304 152 Z" stroke-miterlimit="10"/></g><g transform="translate(2,-6) scale(1,1)"><g><path fill="none" stroke="none"/><text fill="#000000" stroke="none" font-family="Arial" font-size="11px" font-style="normal" font-weight="bold" text-decoration="none" x="346.87158203125" y="158">Refill of medicines</text></g></g><g transform="translate(2,-6) scale(1,1)"><path fill="none" stroke="#800000" d="M 137 133 L 272 72 L 311 74" stroke-miterlimit="10"/></g><g transform="translate(2,-6) scale(1,1)"><path fill="none" stroke="#800000" d="M 300.6350725839661 77.68351457990175 L 311 74 L 301.06625139956805 69.27552767566411" stroke-miterlimit="10"/></g><g transform="translate(2,-6) scale(1,1)"><path fill="none" stroke="#800000" d="M 137 150 L 303 151" stroke-miterlimit="10"/></g><g transform="translate(2,-6) scale(1,1)"><path fill="none" stroke="#800000" d="M 292.81215145717334 155.14822155488642 L 303 151 L 292.8628676183414 146.72933880099018" stroke-miterlimit="10"/></g><g transform="translate(2,-6) scale(1,1)"><path fill="#C0C0C0" stroke="none" d="M 311 230.5 C 311 217.5213072 350.6227952 207 399.5 207 C 448.3772048 207 488 217.5213072 488 230.5 C 488 243.4786928 448.3772048 254 399.5 254 C 350.6227952 254 311 243.4786928 311 230.5 Z" opacity="0.2"/></g><g transform="translate(2,-6) scale(1,1)"><path fill="#FFFFB9" stroke="none" d="M 304 223.5 C 304 210.5213072 343.6227952 200 392.5 200 C 441.3772048 200 481 210.5213072 481 223.5 C 481 236.4786928 441.3772048 247 392.5 247 C 343.6227952 247 304 236.4786928 304 223.5 Z"/></g><g transform="translate(2,-6) scale(1,1)"><path fill="none" stroke="#800000" d="M 304 223.5 C 304 210.5213072 343.6227952 200 392.5 200 C 441.3772048 200 481 210.5213072 481 223.5 C 481 236.4786928 441.3772048 247 392.5 247 C 343.6227952 247 304 236.4786928 304 223.5 Z" stroke-miterlimit="10"/></g><g transform="translate(2,-6) scale(1,1)"><g><path fill="none" stroke="none"/><text fill="#000000" stroke="none" font-family="Arial" font-size="11px" font-style="normal" font-weight="bold" text-decoration="none" x="338.995849609375" y="229.5">Generate notifications</text></g></g><g transform="translate(2,-6) scale(1,1)"><path fill="none" stroke="#800000" d="M 137 169 L 256 232 L 303 229" stroke-miterlimit="10"/></g><g transform="translate(2,-6) scale(1,1)"><path fill="none" stroke="#800000" d="M 293.12611162316813 233.84833253004206 L 303 229 L 292.58981776262306 225.4463953815032" stroke-miterlimit="10"/></g><g transform="translate(2,-6) scale(1,1)"><path fill="#ffffb9" stroke="none" d="M 41.176518821022725 298.02 C 41.176518821022725 293.03839110399997 45.206281232077274 289 50.17724609375 289 C 55.148210955422726 289 59.177973366477275 293.03839110399997 59.177973366477275 298.02 C 59.177973366477275 303.001608896 55.148210955422726 307.04 50.17724609375 307.04 C 45.206281232077274 307.04 41.176518821022725 303.001608896 41.176518821022725 298.02 Z"/></g><g transform="translate(2,-6) scale(1,1)"><path fill="none" stroke="#800000" d="M 41.176518821022725 298.02 C 41.176518821022725 293.03839110399997 45.206281232077274 289 50.17724609375 289 C 55.148210955422726 289 59.177973366477275 293.03839110399997 59.177973366477275 298.02 C 59.177973366477275 303.001608896 55.148210955422726 307.04 50.17724609375 307.04 C 45.206281232077274 307.04 41.176518821022725 303.001608896 41.176518821022725 298.02 Z" stroke-miterlimit="10"/></g><g transform="translate(2,-6) scale(1,1)"><path fill="none" stroke="#800000" d="M 50.17724609375 307.04 L 50.17724609375 324.96" stroke-miterlimit="10"/></g><g transform="translate(2,-6) scale(1,1)"><path fill="none" stroke="#800000" d="M 40.647064275568184 313.76 L 59.707427911931816 313.76" stroke-miterlimit="10"/></g><g transform="translate(2,-6) scale(1,1)"><path fill="none" stroke="#800000" d="M 50.17724609375 324.96 L 36.940882457386365 343" stroke-miterlimit="10"/></g><g transform="translate(2,-6) scale(1,1)"><path fill="none" stroke="#800000" d="M 50.17724609375 324.96 L 63.413609730113635 343" stroke-miterlimit="10"/></g><g transform="translate(2,-6) scale(1,1)"><g><path fill="none" stroke="none"/><text fill="#000000" stroke="none" font-family="Arial" font-size="11px" font-style="normal" font-weight="bold" text-decoration="none" x="33.36572265625" y="361.5">Elderly</text></g></g><g transform="translate(2,-6) scale(1,1)"><path fill="#ffffb9" stroke="none" d="M 136.0256399147727 298.02 C 136.0256399147727 293.03839110399997 140.05540232582726 289 145.0263671875 289 C 149.99733204917274 289 154.0270944602273 293.03839110399997 154.0270944602273 298.02 C 154.0270944602273 303.001608896 149.99733204917274 307.04 145.0263671875 307.04 C 140.05540232582726 307.04 136.0256399147727 303.001608896 136.0256399147727 298.02 Z"/></g><g transform="translate(2,-6) scale(1,1)"><path fill="none" stroke="#800000" d="M 136.0256399147727 298.02 C 136.0256399147727 293.03839110399997 140.05540232582726 289 145.0263671875 289 C 149.99733204917274 289 154.0270944602273 293.03839110399997 154.0270944602273 298.02 C 154.0270944602273 303.001608896 149.99733204917274 307.04 145.0263671875 307.04 C 140.05540232582726 307.04 136.0256399147727 303.001608896 136.0256399147727 298.02 Z" stroke-miterlimit="10"/></g><g transform="translate(2,-6) scale(1,1)"><path fill="none" stroke="#800000" d="M 145.0263671875 307.04 L 145.0263671875 324.96" stroke-miterlimit="10"/></g><g transform="translate(2,-6) scale(1,1)"><path fill="none" stroke="#800000" d="M 135.49618536931817 313.76 L 154.55654900568183 313.76" stroke-miterlimit="10"/></g><g transform="translate(2,-6) scale(1,1)"><path fill="none" stroke="#800000" d="M 145.0263671875 324.96 L 131.79000355113635 343" stroke-miterlimit="10"/></g><g transform="translate(2,-6) scale(1,1)"><path fill="none" stroke="#800000" d="M 145.0263671875 324.96 L 158.26273082386365 343" stroke-miterlimit="10"/></g><g transform="translate(2,-6) scale(1,1)"><g><path fill="none" stroke="none"/><text fill="#000000" stroke="none" font-family="Arial" font-size="11px" font-style="normal" font-weight="bold" text-decoration="none" x="122.706787109375" y="361.5">Cuidador</text></g></g><g transform="translate(2,-6) scale(1,1)"><path fill="none" stroke="#800000" d="M 61 287 L 89 190" stroke-miterlimit="10"/></g><g transform="translate(2,-6) scale(1,1)"><path fill="#FFFFFF" stroke="none" d="M 91.45181953910136 211.86294995986773 L 89 190 L 75.27425804897962 207.1931383957089"/></g><g transform="translate(2,-6) scale(1,1)"><path fill="none" stroke="#800000" d="M 91.45181953910136 211.86294995986773 L 89 190 L 75.27425804897962 207.1931383957089 L 91.45181953910136 211.86294995986773" stroke-miterlimit="10"/></g><g transform="translate(2,-6) scale(1,1)"><g><path fill="none" stroke="none"/><text fill="#000000" stroke="none" font-family="Arial" font-size="13px" font-style="normal" font-weight="normal" text-decoration="none" x="36.5" y="251.5">+is a</text></g></g><g transform="translate(2,-6) scale(1,1)"><path fill="none" stroke="#800000" d="M 135 287 L 110 190" stroke-miterlimit="10"/></g><g transform="translate(2,-6) scale(1,1)"><path fill="#FFFFFF" stroke="none" d="M 123.22533787928238 207.5809680614811 L 110 190 L 106.92010436182649 211.7833478340213"/></g><g transform="translate(2,-6) scale(1,1)"><path fill="none" stroke="#800000" d="M 123.22533787928238 207.5809680614811 L 110 190 L 106.92010436182649 211.7833478340213 L 123.22533787928238 207.5809680614811" stroke-miterlimit="10"/></g><g transform="translate(2,-6) scale(1,1)"><g><path fill="none" stroke="none"/><text fill="#000000" stroke="none" font-family="Arial" font-size="13px" font-style="normal" font-weight="normal" text-decoration="none" x="93.5" y="247.5">+is a</text></g></g><g transform="translate(2,-6) scale(1,1)"><path fill="#C0C0C0" stroke="none" d="M 311 335 C 311 321.7451648 350.3989376 311 399 311 C 447.6010624 311 487 321.7451648 487 335 C 487 348.2548352 447.6010624 359 399 359 C 350.3989376 359 311 348.2548352 311 335 Z" opacity="0.2"/></g><g transform="translate(2,-6) scale(1,1)"><path fill="#ffffb9" stroke="none" d="M 304 328 C 304 314.7451648 343.3989376 304 392 304 C 440.6010624 304 480 314.7451648 480 328 C 480 341.2548352 440.6010624 352 392 352 C 343.3989376 352 304 341.2548352 304 328 Z"/></g><g transform="translate(2,-6) scale(1,1)"><path fill="none" stroke="#800000" d="M 304 328 C 304 314.7451648 343.3989376 304 392 304 C 440.6010624 304 480 314.7451648 480 328 C 480 341.2548352 440.6010624 352 392 352 C 343.3989376 352 304 341.2548352 304 328 Z" stroke-miterlimit="10"/></g><g transform="translate(2,-6) scale(1,1)"><g><path fill="none" stroke="none"/><text fill="#000000" stroke="none" font-family="Arial" font-size="11px" font-style="normal" font-weight="bold" text-decoration="none" x="343.394287109375" y="334">Display notifications</text></g></g><g transform="translate(2,-6) scale(1,1)"><path fill="none" stroke="#000000" d="M 392 248 L 392 303" stroke-miterlimit="10" stroke-dasharray="3"/></g><g transform="translate(2,-6) scale(1,1)"><path fill="none" stroke="#000000" d="M 387.790482243984 292.83732514237585 L 392 303 L 396.209517756016 292.83732514237585" stroke-miterlimit="10"/></g><g transform="translate(2,-6) scale(1,1)"><g><path fill="none" stroke="none"/><text fill="#000000" stroke="none" font-family="Arial" font-size="13px" font-style="normal" font-weight="normal" text-decoration="none" x="393.5" y="280.5">«include»</text></g></g></g></svg>